<?xml version="1.0" standalone="no"?>
<!DOCTYPE svg PUBLIC "-//W3C//DTD SVG 20010904//EN"
 "http://www.w3.org/TR/2001/REC-SVG-20010904/DTD/svg10.dtd">
<svg version="1.0" xmlns="http://www.w3.org/2000/svg"
 width="260.000000pt" height="260.000000pt" viewBox="0 0 260.000000 260.000000"
 preserveAspectRatio="xMidYMid meet">
<metadata>
Created by potrace 1.11, written by Peter Selinger 2001-2013
</metadata>
<g transform="translate(0.000000,260.000000) scale(0.100000,-0.100000)"
fill="#000000" stroke="none">
<path d="M1049 2369 c-157 -40 -233 -154 -208 -312 23 -140 102 -233 229 -267
74 -20 230 -15 335 11 62 15 159 51 172 63 6 6 14 36 17 66 4 30 10 79 15 108
4 29 5 54 2 56 -16 10 -145 24 -297 32 l-92 5 2 -65 1 -66 65 -1 c36 -1 68 -1
73 0 4 0 7 -10 7 -24 0 -21 -9 -30 -42 -45 -80 -36 -173 -24 -215 30 -32 39
-45 158 -23 214 20 53 69 78 148 77 56 -1 96 -16 125 -48 15 -18 32 -20 141
-21 116 -1 124 0 119 17 -7 29 -62 90 -102 115 -97 62 -335 89 -472 55z"/>
<path d="M1196 1735 c-8 -8 -21 -15 -29 -15 -10 0 -13 -7 -10 -20 3 -11 0 -20
-6 -20 -6 0 -11 -7 -11 -15 0 -18 16 -20 23 -2 3 6 4 2 4 -10 -1 -13 -5 -23
-9 -23 -4 0 -8 -7 -8 -16 0 -8 4 -13 9 -9 17 10 22 -13 6 -28 -8 -9 -15 -21
-15 -28 0 -7 3 -9 7 -6 3 4 12 -5 19 -18 10 -19 13 -103 13 -351 l-1 -325 -31
-20 c-44 -26 -53 -24 -79 15 -39 59 -88 53 -109 -12 -14 -42 -6 -73 37 -142
19 -30 34 -66 34 -78 0 -15 -23 -44 -66 -85 -88 -83 -108 -123 -101 -201 14
-160 57 -205 225 -241 140 -29 323 -9 421 46 78 43 117 168 87 273 -13 45 -30
71 -84 129 -38 40 -67 77 -67 82 1 6 16 40 34 77 40 82 38 126 -7 170 -36 37
-62 32 -85 -17 -18 -39 -34 -42 -77 -20 l-30 16 -1 262 c-1 144 -2 285 -3 312
-2 57 15 127 32 133 17 5 15 22 -3 22 -10 0 -15 10 -15 28 0 20 3 23 10 12 5
-8 12 -11 16 -7 4 4 2 13 -4 19 -17 17 -15 38 3 32 19 -8 19 -4 0 33 -15 30
-67 63 -98 63 -9 0 -22 -7 -31 -15z m114 -1060 c0 -12 -15 -15 -70 -15 -63 0
-81 6 -64 22 3 4 34 6 70 7 50 0 64 -3 64 -14z m0 -142 c0 -15 -9 -18 -63 -17
-35 0 -69 4 -75 8 -26 16 2 26 69 26 59 0 69 -3 69 -17z m1 -176 c4 -5 2 -25
-3 -46 -5 -20 -11 -44 -13 -54 -2 -10 -7 -28 -11 -40 -4 -12 -7 -34 -6 -49 0
-22 -5 -29 -24 -34 -13 -3 -30 -4 -38 -1 -13 5 -39 103 -52 192 l-5 40 73 1
c40 0 76 -4 79 -9z m219 -57 c0 -5 -2 -10 -4 -10 -3 0 -8 5 -11 10 -3 6 -1 10
4 10 6 0 11 -4 11 -10z"/>
<path d="M598 1624 c-32 -7 -76 -23 -98 -34 -83 -42 -142 -131 -135 -203 8
-90 80 -136 250 -161 55 -8 125 -29 135 -41 36 -43 6 -96 -56 -100 -48 -4 -89
19 -105 58 -12 28 -13 28 -68 22 -145 -16 -171 -23 -171 -46 0 -45 53 -119
103 -146 69 -35 286 -54 383 -33 102 23 164 97 164 196 0 133 -119 227 -317
250 -32 3 -64 11 -70 16 -17 14 -16 53 1 67 30 25 111 13 120 -17 5 -15 20
-17 122 -16 63 1 117 3 118 5 2 2 -3 26 -12 53 -18 55 -60 102 -112 124 -47
20 -182 23 -252 6z"/>
<path d="M1496 1560 c-7 -3 -12 -13 -11 -22 2 -9 5 -34 8 -55 43 -300 59 -409
68 -466 l11 -67 96 6 c54 3 169 6 258 6 115 0 161 3 161 11 0 7 4 37 7 67 l8
55 -171 0 -171 0 0 48 c0 55 -21 49 186 47 l131 -1 7 38 c11 67 8 93 -11 94
-10 1 -81 3 -158 5 -77 2 -145 3 -151 4 -7 0 -12 20 -12 49 l-2 48 128 -3 c70
-3 155 -6 190 -8 52 -3 62 -1 63 13 0 9 2 27 5 41 11 65 11 77 0 77 -326 16
-616 22 -640 13z"/>
</g>
</svg>
